<svg width="18" height="12" viewBox="0 0 18 12" fill="none" xmlns="http://www.w3.org/2000/svg">
<path d="M4.7625 8.01177L3.1875 6.49412C3.925 5.8 4.79075 5.25012 5.78475 4.84447C6.77875 4.43882 7.8505 4.23576 9 4.23529C10.15 4.23529 11.222 4.44118 12.216 4.85294C13.21 5.26471 14.0755 5.82353 14.8125 6.52941L13.2375 8.01177C12.6875 7.49412 12.05 7.08824 11.325 6.79412C10.6 6.5 9.825 6.35294 9 6.35294C8.175 6.35294 7.4 6.5 6.675 6.79412C5.95 7.08824 5.3125 7.49412 4.7625 8.01177ZM1.575 5.01177L0 3.52941C1.15 2.42353 2.49375 1.55882 4.03125 0.935294C5.56875 0.311765 7.225 0 9 0C10.775 0 12.4312 0.311765 13.9688 0.935294C15.5063 1.55882 16.85 2.42353 18 3.52941L16.425 5.01177C15.4625 4.10588 14.3468 3.39694 13.0778 2.88494C11.8088 2.37294 10.4495 2.11718 9 2.11765C7.55 2.11765 6.1905 2.37365 4.9215 2.88565C3.6525 3.39765 2.537 4.10635 1.575 5.01177ZM9 12L11.6437 9.49412C11.3062 9.17647 10.9125 8.92635 10.4625 8.74376C10.0125 8.56118 9.525 8.47012 9 8.47059C8.475 8.47059 7.9875 8.56188 7.5375 8.74447C7.0875 8.92706 6.69375 9.17694 6.35625 9.49412L9 12Z" fill="#333333"/>
</svg>
